<svg width="6" height="9" viewBox="0 0 6 9" fill="none" xmlns="http://www.w3.org/2000/svg">
<path d="M5.79167 0.605168C5.79167 0.544389 5.76752 0.4861 5.72454 0.443122C5.68157 0.400145 5.62328 0.376001 5.5625 0.376001H4.41667C3.83968 0.347259 3.27477 0.548055 2.84537 0.934517C2.41597 1.32098 2.15698 1.86169 2.125 2.4385V3.676H0.979167C0.918388 3.676 0.860098 3.70015 0.817121 3.74312C0.774144 3.7861 0.75 3.84439 0.75 3.90517V5.09684C0.75 5.15761 0.774144 5.2159 0.817121 5.25888C0.860098 5.30186 0.918388 5.326 0.979167 5.326H2.125V8.39684C2.125 8.45761 2.14914 8.5159 2.19212 8.55888C2.2351 8.60186 2.29339 8.626 2.35417 8.626H3.72917C3.78994 8.626 3.84823 8.60186 3.89121 8.55888C3.93419 8.5159 3.95833 8.45761 3.95833 8.39684V5.326H5.15917C5.21013 5.32673 5.25988 5.31046 5.30055 5.27974C5.34123 5.24903 5.3705 5.20563 5.38375 5.15642L5.71375 3.96475C5.72287 3.93089 5.72409 3.89539 5.71733 3.86098C5.71057 3.82657 5.696 3.79417 5.67475 3.76628C5.6535 3.73839 5.62613 3.71574 5.59475 3.70009C5.56337 3.68444 5.52882 3.6762 5.49375 3.676H3.95833V2.4385C3.96973 2.32505 4.02301 2.21993 4.10776 2.14365C4.19251 2.06738 4.30265 2.02543 4.41667 2.026H5.5625C5.62328 2.026 5.68157 2.00186 5.72454 1.95888C5.76752 1.9159 5.79167 1.85761 5.79167 1.79683V0.605168Z" fill="#AAAAAA"/>
</svg>
